Coordinates
version=1
nRows=19
nColumns=24
inDegrees=yes

Units are S.I. units (second, meters, Newtons, ...)
Angles are in degrees.

endheader
time	pelvis_tilt	pelvis_list	pelvis_rotation	pelvis_tx	pelvis_ty	pelvis_tz	hip_flexion_r	hip_adduction_r	hip_rotation_r	knee_angle_r	ankle_angle_r	subtalar_angle_r	mtp_angle_r	hip_flexion_l	hip_adduction_l	hip_rotation_l	knee_angle_l	ankle_angle_l	subtalar_angle_l	mtp_angle_l	lumbar_extension	lumbar_bending	lumbar_rotation
      0.70016667	      3.04136645	      4.60062676	     -1.25843055	     -0.48450898	      1.02481360	      0.29617899	      7.61294348	     -2.01769031	      2.30391342	    -16.97570190	      8.58776554	     -9.18132906	      5.13555781	     15.04763723	      3.24583427	     -7.51716565	    -65.28210788	     -1.81758125	    -19.57203968	      4.38961157	    -10.02832931	     -4.41524852	      5.16436708
      0.70433333	      3.05385860	      4.70498736	     -1.43634248	     -0.47939817	      1.02553187	      0.29653841	      7.17231360	     -2.13183469	      2.36511483	    -16.71130585	      8.72649734	     -9.05493126	      5.13930186	     15.47348534	      3.36764774	     -7.67022346	    -64.70403410	     -1.56393642	    -19.30892759	      4.29601766	    -10.04808721	     -4.51579998	      5.44174719
      0.70850000	      3.04178177	      4.81784574	     -1.61570613	     -0.47428556	      1.02618243	      0.29689578	      6.75799248	     -2.25695007	      2.43194638	    -16.44065492	      8.84252011	     -8.92734693	      5.14583392	     15.91209101	      3.49589045	     -7.82084609	    -64.06488559	     -1.33089626	    -19.05385240	      4.20977940	    -10.04926361	     -4.64894978	      5.66455359
      0.71266667	      3.00720478	      4.93502955	     -1.80187315	     -0.46916821	      1.02675540	      0.29723997	      6.37290263	     -2.39074176	      2.49394224	    -16.17359610	      8.92062296	     -8.80089729	      5.15247058	     16.35971933	      3.62666884	     -7.97256478	    -63.36533564	     -1.12021428	    -18.78904285	      4.16710591	    -10.02273643	     -4.79269127	      5.81518738
      0.71683333	      2.98822716	      5.01816843	     -1.98743579	     -0.46405163	      1.02727868	      0.29757862	      5.96779572	     -2.49068568	      2.54422901	    -15.90529455	      9.08123860	     -8.63654529	      5.16711077	     16.78015828	      3.70750949	     -8.12413544	    -62.63697407	     -0.85233790	    -18.42147482	      4.10382581	    -10.01422802	     -4.89151127	      6.10065470
      0.72100000	      2.96961086	      5.12314539	     -2.18728551	     -0.45892806	      1.02779508	      0.29790084	      5.56900470	     -2.61954934	      2.60071722	    -15.63989973	      9.15829011	     -8.49885780	      5.17822879	     17.17470669	      3.81588078	     -8.27823938	    -61.82291621	     -0.64703915	    -18.09347297	      4.07136482	     -9.99800779	     -5.01136028	      6.27124493
      0.72516667	      2.96461634	      5.20174273	     -2.37917367	     -0.45379336	      1.02826207	      0.29821906	      5.14554769	     -2.72286824	      2.64214510	    -15.36193534	      9.31610488	     -8.31369230	      5.20045881	     17.54349294	      3.88678694	     -8.42404349	    -60.98238132	     -0.39025093	    -17.69623479	      4.02741315	    -10.00636376	     -5.10398121	      6.56030200
      0.72933333	      2.92998505	      5.28836942	     -2.58119338	     -0.44866253	      1.02864694	      0.29852486	      4.76726657	     -2.83676287	      2.69051452	    -15.10198544	      9.40002439	     -8.17327936	      5.21495874	     17.92550463	      3.96413573	     -8.57460860	    -60.07680016	     -0.19557694	    -17.33264513	      4.01060995	     -9.96745380	     -5.20721377	      6.72401099
      0.73350000	      2.93757402	      5.36461019	     -2.78440707	     -0.44352762	      1.02904849	      0.29882611	      4.33592960	     -2.94510201	      2.72987331	    -14.82941834	      9.52409783	     -8.00242023	      5.23283356	     18.24321613	      4.02527341	     -8.72375302	    -59.12638778	      0.02434356	    -16.91523319	      3.99995337	     -9.98486691	     -5.30167229	      6.94151343
      0.73766667	      2.92353833	      5.40552912	     -2.97727584	     -0.43838577	      1.02934071	      0.29910920	      3.92310800	     -3.01607400	      2.75907214	    -14.55370363	      9.69791433	     -7.80968543	      5.26281080	     18.57578304	      4.04172680	     -8.85979997	    -58.15986124	      0.27180106	    -16.48387160	      3.98823298	     -9.97949107	     -5.34770351	      7.25024908
      0.74183333	      2.88299505	      5.47885487	     -3.18098220	     -0.43323709	      1.02957421	      0.29938482	      3.55470740	     -3.12386230	      2.79908835	    -14.30121791	      9.79448454	     -7.65631807	      5.28226550	     18.91131914	      4.09467244	     -9.00031090	    -57.11350839	      0.43520108	    -16.09699327	      3.98713706	     -9.93412388	     -5.43512892	      7.42077865
      0.74600000	      2.86085282	      5.52528600	     -3.37759160	     -0.42808485	      1.02976833	      0.29964992	      3.15878534	     -3.20572541	      2.82897986	    -14.03940157	      9.93421727	     -7.48287841	      5.30478164	     19.21410935	      4.11205799	     -9.13414840	    -56.04419006	      0.62243501	    -15.67374634	      3.99151875	     -9.91483018	     -5.49336520	      7.64092450
      0.75016667	      2.86565126	      5.54925167	     -3.56833336	     -0.42292554	      1.02994577	      0.29989475	      2.72518961	     -3.26782592	      2.84814276	    -13.76685575	     10.11848230	     -7.28846100	      5.34016887	     19.47145359	      4.10620860	     -9.25603958	    -54.94527561	      0.82419141	    -15.25561546	      4.00185901	     -9.92979837	     -5.52046124	      7.93571633
      0.75433333	      2.80541294	      5.58606258	     -3.74981979	     -0.41776526	      1.02999085	      0.30012322	      2.36956329	     -3.33984756	      2.87878625	    -13.50607532	     10.22174683	     -7.14215115	      5.36111794	     19.78351098	      4.11400305	     -9.36314973	    -53.79475574	      0.93764501	    -14.88172451	      4.01206407	     -9.87263909	     -5.56926042	      8.08937599
      0.75850000	      2.81288366	      5.59794194	     -3.93774670	     -0.41260304	      1.03007870	      0.30035330	      1.94073750	     -3.39267067	      2.89414966	    -13.25153933	     10.41035343	     -6.95148422	      5.40017729	     20.00067635	      4.09285223	     -9.47076157	    -52.61346671	      1.10332458	    -14.47136287	      4.03524460	     -9.88562647	     -5.57688674	      8.37665715
      0.76266667	      2.76073565	      5.61485223	     -4.10903392	     -0.40743383	      1.03004901	      0.30054869	      1.57755297	     -3.44715280	      2.91713481	    -12.99987387	     10.51615711	     -6.81954928	      5.42202579	     20.26651430	      4.07990616	     -9.55735378	    -51.38593946	      1.17345142	    -14.11591110	      4.05139146	     -9.83039530	     -5.59928995	      8.52007458
      0.76683333	      2.72769679	      5.61936010	     -4.27733344	     -0.40225117	      1.02999008	      0.30074252	      1.19086199	     -3.49031154	      2.93836928	    -12.74883520	     10.66698345	     -6.67234414	      5.44706121	     20.49410641	      4.05215454	     -9.63638491	    -50.13117479	      1.25625344	    -13.74844988	      4.07288604	     -9.79977754	     -5.60774417	      8.71167148
      0.77100000	      2.69569790	      5.61397327	     -4.43492829	     -0.39707505	      1.02988425	      0.30091598	      0.80165277	     -3.52398352	      2.95376214	    -12.49801309	     10.81607322	     -6.52926188	      5.47211511	     20.70512326	      4.01477419	     -9.70354127	    -48.84477310	      1.31095755	    -13.40163868	      4.09722407	     -9.77801982	     -5.60198315	      8.90162822
      0.77516667	      2.65280128	      5.60560413	     -4.58253169	     -0.39189953	      1.02972444	      0.30107043	      0.42820056	     -3.55425707	      2.96636437	    -12.25829521	     10.97072386	     -6.39575359	      5.49664175	     20.90904017	      3.97870770	     -9.75104710	    -47.51916426	      1.33784492	    -13.08155736	      4.12388298	     -9.73707363	     -5.59119425	      9.08048386
